# Blender v2.78 (sub 0) OBJ File: 'steve.blend'
# www.blender.org
mtllib steve.mtl
o Cube_Cube.001
v -0.350000 0.000000 0.200000
v -0.350000 0.800000 0.200000
v -0.350000 0.000000 -0.200000
v -0.350000 0.800000 -0.200000
v 0.350000 0.000000 0.200000
v 0.350000 0.800000 0.200000
v 0.350000 0.000000 -0.200000
v 0.350000 0.800000 -0.200000
v -0.350000 1.600000 0.200000
v -0.350000 1.600000 -0.200000
v 0.350000 1.600000 0.200000
v 0.350000 1.600000 -0.200000
v -0.150000 1.600000 0.149996
v -0.150000 1.900000 0.150001
v -0.150000 1.600000 -0.150004
v -0.150000 1.900000 -0.149999
v 0.150000 1.600000 0.150001
v 0.150000 1.900000 0.150001
v 0.150000 1.600000 -0.149999
v 0.150000 1.900000 -0.149999
v 0.350000 1.000000 0.150000
v 0.350000 1.600000 0.150000
v 0.350000 1.000000 -0.150000
v 0.350000 1.600000 -0.150000
v 0.450000 1.000000 0.150000
v 0.450000 1.600000 0.150000
v 0.450000 1.000000 -0.150000
v 0.450000 1.600000 -0.150000
v -0.450000 1.000000 0.150000
v -0.450000 1.600000 0.150000
v -0.450000 1.000000 -0.150000
v -0.450000 1.600000 -0.150000
v -0.350000 1.000000 0.150000
v -0.350000 1.600000 0.150000
v -0.350000 1.000000 -0.150000
v -0.350000 1.600000 -0.150000
vt 0.5312 0.3125
vt 0.6875 0.6250
vt 0.5312 0.6250
vt 0.8438 0.3125
vt 0.6875 -0.0000
vt 0.8438 -0.0000
vt -0.0000 0.6250
vt 0.1562 0.8750
vt -0.0000 0.8750
vt 0.6875 -0.0000
vt 0.6875 0.3125
vt 0.6875 0.6250
vt 0.6875 0.3125
vt 0.2812 -0.0000
vt -0.0000 0.3125
vt -0.0000 -0.0000
vt 0.2812 -0.0000
vt 0.5312 0.3125
vt 0.2812 0.3125
vt 0.1562 0.6250
vt 0.3125 0.8750
vt 0.1562 0.8750
vt -0.0000 0.6250
vt 0.2812 0.3125
vt 0.2812 0.6250
vt 0.5312 0.6250
vt 0.2812 0.6250
vt 0.8750 0.6250
vt 0.7812 0.7188
vt 0.7812 0.6250
vt 0.8438 0.1250
vt 0.9688 0.2500
vt 0.8438 0.2500
vt 0.9688 0.1250
vt 0.8438 -0.0000
vt 0.9688 -0.0000
vt 0.3125 0.8438
vt 0.4375 0.9688
vt 0.3125 0.9688
vt 0.8750 0.7188
vt 0.7812 0.8438
vt 0.7812 0.7188
vt 0.8438 0.3438
vt 0.9688 0.2500
vt 0.9688 0.3438
vt 0.3125 0.6250
vt 0.4375 0.8438
vt 0.3125 0.8438
vt 0.8750 0.3438
vt 0.9062 0.5938
vt 0.8750 0.5938
vt 0.6562 0.8438
vt 0.5312 0.6250
vt 0.6562 0.6250
vt 0.8750 0.6250
vt 0.9062 0.8438
vt 0.8750 0.8438
vt 0.4688 0.8438
vt 0.4375 0.9688
vt 0.4688 0.9688
vt 0.5000 0.8438
vt 0.5000 0.9688
vt 0.4375 0.6250
vt 0.5312 0.8438
vt 0.4375 0.8438
vt 0.9062 0.3438
vt 0.9688 0.5938
vt 0.9062 0.5938
vt 0.7812 0.8438
vt 0.6562 0.6250
vt 0.7812 0.6250
vt 0.8438 0.3438
vt 0.8750 0.5938
vt 0.8438 0.5938
vt 0.5312 0.8438
vt 0.5000 0.9688
vt 0.5000 0.8438
vt 0.5312 0.9688
vt 0.5938 0.8438
vt 0.5938 0.9688
vt 0.1562 0.6250
vt 0.5312 -0.0000
vt 0.8438 0.6250
vt 0.5312 -0.0000
vt 0.3125 0.6250
vt 0.8750 0.7188
vt 0.8438 0.1250
vt 0.4375 0.8438
vt 0.8750 0.8438
vt 0.8438 0.2500
vt 0.4375 0.6250
vt 0.9062 0.3438
vt 0.5312 0.8438
vt 0.9062 0.6250
vt 0.4688 0.9688
vt 0.4688 0.8438
vt 0.5312 0.6250
vt 0.9688 0.3438
vt 0.6562 0.8438
vt 0.8750 0.3438
vt 0.5312 0.9688
vt 0.5312 0.8438
vn -1.0000 0.0000 0.0000
vn 1.0000 0.0000 0.0000
vn 0.0000 -1.0000 0.0000
vn 0.0000 0.0000 1.0000
vn 0.0000 0.0000 -1.0000
vn 0.0000 1.0000 0.0000
usemtl None
s off
f 2/1/1 3/2/1 1/3/1
f 8/4/2 5/5/2 7/6/2
f 7/7/3 1/8/3 3/9/3
f 2/1/1 10/10/1 4/11/1
f 8/4/2 11/12/2 6/13/2
f 9/14/4 6/15/4 11/16/4
f 10/17/5 8/18/5 4/19/5
f 11/20/6 10/21/6 9/22/6
f 5/23/4 2/24/4 1/25/4
f 4/19/5 7/26/5 3/27/5
f 13/28/1 16/29/1 15/30/1
f 16/31/5 19/32/5 15/33/5
f 20/34/2 17/35/2 19/36/2
f 18/37/4 13/38/4 17/39/4
f 19/40/3 13/41/3 15/42/3
f 16/43/6 18/44/6 20/45/6
f 22/46/1 23/47/1 21/48/1
f 24/49/5 27/50/5 23/51/5
f 28/52/2 25/53/2 27/54/2
f 26/55/4 21/56/4 25/57/4
f 27/58/3 21/59/3 23/47/3
f 24/60/6 26/61/6 28/62/6
f 30/63/1 31/64/1 29/65/1
f 32/66/5 35/67/5 31/68/5
f 36/69/2 33/70/2 35/71/2
f 34/72/4 29/73/4 33/74/4
f 35/75/3 29/76/3 31/77/3
f 32/78/6 34/79/6 36/80/6
f 2/1/1 4/11/1 3/2/1
f 8/4/2 6/13/2 5/5/2
f 7/7/3 5/81/3 1/8/3
f 2/1/1 9/82/1 10/10/1
f 8/4/2 12/83/2 11/12/2
f 9/14/4 2/24/4 6/15/4
f 10/17/5 12/84/5 8/18/5
f 11/20/6 12/85/6 10/21/6
f 5/23/4 6/15/4 2/24/4
f 4/19/5 8/18/5 7/26/5
f 13/28/1 14/86/1 16/29/1
f 16/31/5 20/34/5 19/32/5
f 20/34/2 18/87/2 17/35/2
f 18/37/4 14/88/4 13/38/4
f 19/40/3 17/89/3 13/41/3
f 16/43/6 14/90/6 18/44/6
f 22/46/1 24/91/1 23/47/1
f 24/49/5 28/92/5 27/50/5
f 28/52/2 26/93/2 25/53/2
f 26/55/4 22/94/4 21/56/4
f 27/58/3 25/95/3 21/59/3
f 24/60/6 22/96/6 26/61/6
f 30/63/1 32/97/1 31/64/1
f 32/66/5 36/98/5 35/67/5
f 36/69/2 34/99/2 33/70/2
f 34/72/4 30/100/4 29/73/4
f 35/75/3 33/101/3 29/76/3
f 32/78/6 30/102/6 34/79/6
